<svg width="997" height="1074" viewBox="0 0 997 1074" fill="none" xmlns="http://www.w3.org/2000/svg">
<path d="M562.7 1015.27C549.47 979.339 566.882 951.508 589.278 923.394C573.355 922.544 559.723 924.481 546.304 921.174C524.286 915.74 507.984 900.124 505.173 880.704C503.873 871.702 504.96 862.276 511.221 856.323C522.207 845.857 523.624 832.178 526.743 819.042C529.129 808.978 532.247 798.843 531.964 788.022C530.192 788.258 529.294 788.14 528.703 788.495C518.639 795.015 508.48 799.646 497.329 790.668C487.808 782.99 484.194 768.106 488.777 753.813C495.676 732.267 511.197 717.997 530.239 707.508C537.587 703.444 539.807 698.861 539.571 690.828C536.098 573.057 495.038 470.028 418.563 380.772C379.44 335.105 332.284 299.501 280.545 269.427C256.707 255.559 233.578 240.533 215.954 218.68C212.741 214.711 208.724 210.813 207.212 206.182C202.582 192.102 193.817 189.29 179.666 190.873C149.213 194.275 118.618 196.827 87.8819 196.118C78.7389 195.905 69.8322 194.677 61.0909 192.409C0.894063 176.769 -19.2346 110.004 20.7628 57.698C37.4422 35.892 59.2246 20.6538 85.8265 13.0465C99.34 9.19561 111.035 13.3773 114.744 26.1821C121.122 48.1771 137.636 53.4691 156.773 55.9498C177.468 58.643 198.282 59.6589 219.167 58.5722C225.215 58.265 230.483 56.7294 235.232 52.4533C268.614 22.3784 308.73 6.9276 352.625 2.36795C470.373 -9.84625 574.914 25.8277 668.824 94.6714C776.201 173.39 853.1 275.215 894.728 402.507C923.574 490.7 929.221 580.263 909.186 671.149C908.454 674.409 905.69 678.496 909.281 680.67C910.958 681.685 915.116 679.417 917.786 677.953C936.379 667.888 948.144 652.201 954.523 632.262C957.193 623.922 959.508 614.708 970.281 614.117C981.456 613.503 986.937 621.961 991.307 630.49C1005.79 658.84 991.567 699.688 960.784 718.234C942.427 729.29 922.676 732.763 901.839 726.88C895.956 725.227 892.814 725.463 890.192 731.96C867.724 787.81 834.649 835.863 785.462 871.702C779.106 876.333 781.54 879.877 785.296 883.964C805.708 906.172 831.035 913.354 860.282 908.133C868.339 906.691 877.056 903.1 883.53 910.566C890.286 918.362 887.664 927.694 884.711 936.365C874.788 965.565 842.493 980.898 810.528 971.401C778.846 961.998 761.199 938.845 752.008 908.699C748.724 897.95 745.511 896.344 735.305 901.376C706.459 915.574 675.534 923.087 643.474 925.166C636.718 925.615 632.843 928.048 629.583 933.742C610.47 967.077 615.361 989.356 647.892 1015.46C650.987 1032 646.9 1038.78 630.363 1043.46C625.165 1044.92 619.66 1045.82 614.274 1046.01C590.625 1046.76 575.032 1033.65 562.7 1015.25V1015.27ZM606.477 724.045C610.139 724.66 613.872 725.746 613.778 730.188C613.683 734.795 609.596 736.567 605.958 738.079C587.388 745.851 570.189 755.963 554.1 767.988C550.297 770.847 546.871 773.634 546.351 779.116C544.367 800.26 539.264 820.861 533.736 841.297C530.995 851.361 531.893 860.551 536.287 869.812C545.761 889.776 562.251 901.305 582.781 906.573C651.885 924.268 713.665 905.865 770.932 866.812C816.954 835.91 849.769 793.763 871.788 743.631C915.4 644.263 919.038 541.541 891.798 437.638C852.51 287.736 764.246 172.162 636.174 87.5366C547.627 28.9935 449.795 -0.0654438 342.679 16.7084C280.143 26.4892 230.058 56.4459 203.196 117.186C201.306 121.486 199.369 127.038 193.274 124.392C187.485 121.888 189.541 116.903 191.266 112.225C196.699 97.5064 205.606 84.7725 215.552 71.0462C194.975 70.432 175.838 71.2825 156.82 68.4475C133.384 64.951 112.027 59.4227 104.467 32.6318C102.34 25.0953 96.505 22.8746 88.567 25.2371C70.1157 30.6945 54.3578 40.3808 40.8914 53.9653C28.9607 63.6752 21.4716 76.4328 16.6048 90.726C2.78407 131.479 22.9836 169.799 64.0441 180.62C72.3601 182.817 80.8652 184.163 89.6301 184.187C124.288 184.282 158.71 180.927 193.108 177.501C202.251 176.603 207.85 178.517 211.276 187.754C216.119 200.819 224.837 211.521 234.783 221.255C254.652 240.722 278.797 253.999 302.115 268.529C456.009 364.329 540.776 501.733 551.1 683.575C551.762 695.034 555.093 697.963 565.252 693.687C571.229 691.159 577.655 691.844 583.868 691.135C591.57 690.261 595.255 693.356 592.539 701.507C583.726 703.019 574.725 703.846 566.126 706.185C537.61 713.91 512.686 726.833 500.944 756.341C497.258 765.626 496.928 775.666 506.141 781.714C514.788 787.384 520.695 778.927 526.152 774.083C550.155 752.892 576.899 736.26 606.477 724.069V724.045ZM829.121 961.502C850.454 961.502 868.835 948.744 873.961 930.293C876.796 920.158 874.552 917.89 864.228 920.063C829.523 927.34 800.133 917.842 775.799 892.044C772.964 889.043 771.995 881.979 764.459 886.397C757.867 890.248 761.033 895.21 761.695 899.722C762.238 903.502 764.081 907.117 765.475 910.755C777.665 942.531 801.456 961.478 829.121 961.502ZM619.424 925.308C612.62 926.796 606.17 922.284 601.02 928.828C590.318 942.389 579.143 955.714 573.591 972.44C567.898 989.568 569.197 1005.96 581.955 1019.64C593.129 1031.62 606.879 1036.98 623.464 1032.42C628.331 1031.08 634.568 1030.94 636.009 1025.41C637.379 1020.09 631.52 1017.75 628.165 1014.66C605.981 994.223 600.713 972.794 611.226 944.61C613.518 938.444 616.376 932.49 619.448 925.332L619.424 925.308ZM984.503 655.154C983.795 647.382 983.11 639.137 978.125 632.143C976.376 629.686 974.794 626.119 971.179 626.757C968.226 627.277 967.682 630.891 967.021 633.325C964.54 642.468 961.044 651.115 955.823 659.005C944.175 676.63 928.441 689.245 908.242 695.435C900.091 697.94 900.918 704.838 899.004 710.154C897.468 714.406 902.808 714.453 905.217 715.115C943.986 725.864 984.362 695.435 984.503 655.131V655.154ZM554.266 908.416C537.87 897.69 527.499 883.657 520.151 864.804C514.292 889.398 528.774 907.211 554.266 908.416Z" fill="#41255B"/>
<path d="M562.701 1015.27C575.033 1033.68 590.626 1046.79 614.275 1046.03C619.661 1045.87 625.166 1044.95 630.363 1043.48C646.901 1038.8 650.988 1032.02 647.893 1015.48C723.045 1016.24 798.126 1018.77 872.828 1027.53C889.909 1029.54 907.132 1031.74 923.362 1038.14C926.552 1039.39 930.97 1040.15 930.946 1044.43C930.946 1048.54 926.788 1049.67 923.504 1050.9C904.58 1058.01 884.594 1060.4 864.748 1062.45C740.834 1075.3 616.543 1075.94 492.227 1071.55C435.314 1069.54 378.259 1067.15 322.15 1055.72C316.81 1054.63 311.636 1052.74 306.368 1051.25C302.564 1050.17 297.768 1049.06 297.579 1044.73C297.39 1040.24 302.399 1038.9 306.014 1037.67C323.213 1031.81 341.097 1029.38 359.028 1027.23C426.691 1019.12 494.731 1017.63 562.724 1015.27H562.701Z" fill="#98BFE5"/>
<path d="M40.8906 53.9887C54.357 40.4043 70.1149 30.6943 88.5662 25.2606C96.5042 22.9217 102.34 25.1424 104.466 32.6552C112.026 59.4462 133.383 64.9744 156.819 68.471C175.837 71.306 194.974 70.4319 215.551 71.0697C205.605 84.7959 196.722 97.5299 191.265 112.248C189.54 116.926 187.485 121.911 193.273 124.415C199.368 127.038 201.305 121.509 203.195 117.21C230.057 56.4458 280.143 26.5127 342.678 16.7319C449.795 -0.0419722 547.626 29.017 636.173 87.5128C764.245 172.138 852.509 287.712 891.798 437.614C919.037 541.494 915.399 644.24 871.787 743.607C849.768 793.763 816.953 835.887 770.931 866.812C765.687 867.119 760.796 865.584 755.977 863.859C686.377 838.982 646.356 788.589 631.756 717.407C627.739 697.869 624.148 678.26 619.778 658.745C606.926 601.383 588.214 545.959 567.094 491.267C537.042 413.422 499.431 340.137 444.526 276.112C377.171 197.606 291.459 153.758 190.627 140.032C127.902 131.503 81.8803 98.215 40.8906 54.0124V53.9887ZM628.306 546.857C628.306 582.507 637.756 614.448 666.059 638.215C693.819 661.533 729.516 655.769 749.362 625.434C759.071 610.597 763.537 593.965 764.836 576.695C767.128 546.266 762.852 516.994 743.337 492.164C713.286 453.915 654.578 462.066 635.465 506.694C629.936 519.593 628.401 533.06 628.306 546.857ZM900.562 539.604C901.437 515.364 896.097 492.401 880.056 473.028C863.802 453.396 842.138 446.568 817.756 451.364C796.187 455.616 783.76 471.02 777.05 491.338C770.837 510.167 771.593 529.303 775.538 548.274C780.877 573.931 789.288 598.336 810.834 615.488C836.066 635.593 865.03 631.34 883.103 604.738C896.31 585.295 901.295 563.371 900.562 539.604ZM697.93 366.502C698.071 354.808 685.81 346.681 672.296 350.39C643.356 358.281 628.944 380.559 618.549 406.381C615.36 414.296 616.399 422.021 623.865 427.29C631.141 432.416 637.638 428.093 643.025 423.699C657.885 411.603 672.485 399.152 686.802 386.418C692.638 381.244 697.835 375.173 697.93 366.526V366.502ZM779.909 337.821C776.767 337.821 773.554 337.302 770.53 337.916C761.647 339.711 753.401 343.491 752.362 353.508C751.441 362.439 758.953 366.384 766.065 368.841C784.043 375.031 802.117 381.079 820.379 386.347C826.899 388.214 834.814 389.537 839.61 382.166C844.382 374.795 839.846 368.581 835.475 363.077C821.324 345.216 801.786 338.766 779.885 337.845L779.909 337.821ZM787.682 708.547C773.247 708.594 763.962 702.712 757.347 692.647C751.889 684.379 744.802 676.039 755.41 666.164C757.843 663.896 756.756 660.21 753.85 657.918C750.803 655.556 747.802 656.076 745.582 658.911C740.857 664.959 735.305 666.589 728.004 663.848C724.626 662.573 721.838 664.722 720.775 668.148C719.499 672.235 721.389 676.063 725.24 676.133C736.297 676.393 738.211 684.946 742.061 692.364C754.134 715.564 775.066 726.361 796.919 719.958C817.213 714.028 824.49 696.735 829.026 678.496C830.703 671.739 832.097 667.628 839.846 668.172C844.004 668.479 846.366 665.975 846.248 661.58C846.154 657.517 843.413 655.745 840.035 656.194C832.333 657.21 826.285 654.989 821.276 649.059C818.914 646.271 815.819 646.366 813.008 648.988C810.669 651.162 809.771 654.186 811.661 656.383C825.151 672.07 813.362 684.804 806.534 697.585C802.471 705.169 794.769 708.783 787.729 708.571L787.682 708.547Z" fill="#EBDF3A"/>
<path d="M40.8926 53.9889C81.8586 98.1915 127.904 131.479 190.629 140.008C291.461 153.734 377.173 197.559 444.528 276.089C499.433 340.113 537.068 413.398 567.095 491.243C588.193 545.935 606.927 601.36 619.78 658.722C624.15 678.236 627.765 697.845 631.758 717.383C646.358 788.566 686.379 838.934 755.979 863.835C760.798 865.56 765.688 867.096 770.933 866.788C713.666 905.841 651.886 924.245 582.783 906.55C562.276 901.305 545.762 889.752 536.288 869.789C531.894 860.528 530.996 851.361 533.737 841.273C539.265 820.838 544.368 800.26 546.353 779.092C546.872 773.635 550.298 770.823 554.102 767.964C570.214 755.939 587.413 745.828 605.959 738.055C609.597 736.519 613.684 734.771 613.779 730.164C613.873 725.746 610.117 724.66 606.479 724.022C601.659 716.603 595.564 709.988 592.516 701.46C595.233 693.309 591.571 690.214 583.846 691.088C577.632 691.797 571.23 691.135 565.229 693.64C555.07 697.916 551.715 694.986 551.078 683.528C540.753 501.685 455.986 364.282 302.092 268.482C278.774 253.976 254.606 240.698 234.761 221.208C224.814 211.474 216.097 200.772 211.253 187.707C207.828 178.493 202.205 176.556 193.086 177.454C158.688 180.88 124.266 184.234 89.6076 184.14C80.8663 184.116 72.3376 182.77 64.0216 180.572C22.9847 169.799 2.7852 131.503 16.6059 90.7496C21.4491 76.4564 28.9619 63.6988 40.8926 53.9889Z" fill="#C3A847"/>
<path d="M829.121 961.501C801.456 961.478 777.665 942.53 765.475 910.755C764.081 907.116 762.238 903.502 761.695 899.722C761.057 895.209 757.867 890.248 764.459 886.397C772.019 882.003 772.987 889.043 775.799 892.044C800.133 917.842 829.499 927.339 864.228 920.063C874.528 917.913 876.773 920.181 873.961 930.293C868.811 948.72 850.431 961.501 829.121 961.501Z" fill="#49AB3B"/>
<path d="M592.539 701.484C595.563 710.012 601.659 716.627 606.502 724.046C576.923 736.236 550.18 752.868 526.176 774.06C520.695 778.903 514.813 787.361 506.166 781.691C496.928 775.643 497.259 765.579 500.968 756.318C512.71 726.81 537.635 713.91 566.15 706.161C574.75 703.823 583.751 702.996 592.563 701.484H592.539Z" fill="#49AB3B"/>
<path d="M619.425 925.308C616.353 932.467 613.495 938.42 611.203 944.586C600.69 972.771 605.982 994.199 628.142 1014.63C631.497 1017.73 637.356 1020.07 635.986 1025.38C634.568 1030.91 628.308 1031.08 623.441 1032.4C606.856 1036.98 593.106 1031.6 581.932 1019.62C569.15 1005.94 567.875 989.545 573.568 972.417C579.12 955.69 590.295 942.389 600.997 928.805C606.147 922.284 612.597 926.773 619.401 925.285L619.425 925.308Z" fill="#49AB3B"/>
<path d="M984.504 655.154C984.362 695.459 943.987 725.888 905.218 715.139C902.808 714.477 897.492 714.43 899.004 710.177C900.918 704.838 900.091 697.963 908.242 695.459C928.418 689.269 944.176 676.653 955.823 659.029C961.044 651.138 964.541 642.491 967.021 633.348C967.683 630.915 968.226 627.3 971.179 626.781C974.77 626.143 976.353 629.71 978.125 632.167C983.11 639.184 983.819 647.405 984.504 655.178V655.154Z" fill="#49AB3B"/>
<path d="M554.265 908.416C528.774 907.187 514.292 889.374 520.151 864.804C527.498 883.68 537.869 897.714 554.265 908.416Z" fill="#C3A847"/>
<path d="M628.309 546.857C628.403 533.06 629.939 519.593 635.467 506.694C654.603 462.066 713.312 453.915 743.339 492.164C762.854 516.995 767.13 546.266 764.838 576.695C763.539 593.965 759.074 610.597 749.364 625.434C729.519 655.769 693.821 661.533 666.062 638.215C637.735 614.425 628.309 582.507 628.309 546.857ZM646.335 515.223C669.015 498 691.435 493.653 714.706 513.356C701.641 521.672 697.885 530.225 702.988 539.179C707.831 547.684 717.517 548.629 731.385 541.47C736.866 564.694 738.284 587.279 726.731 608.944C717.682 625.93 702.704 633.325 683.45 633.561C693.23 639.467 702.704 641.83 713.713 638.262C729.353 633.207 738.662 621.867 744.237 607.739C756.569 576.435 755.317 544.919 742.3 514.041C737.811 503.41 730.558 494.645 720.47 488.479C692.545 471.422 663.085 481.415 646.335 515.223Z" fill="#41255B"/>
<path d="M900.564 539.604C901.32 563.394 896.312 585.295 883.105 604.739C865.032 631.34 836.044 635.593 810.836 615.488C789.29 598.312 780.903 573.908 775.54 548.274C771.595 529.303 770.815 510.167 777.052 491.338C783.762 471.02 796.188 455.617 817.758 451.364C842.139 446.568 863.827 453.396 880.058 473.028C896.076 492.401 901.438 515.341 900.564 539.604ZM827.043 610.408C847.904 618.937 863.118 614.826 874.01 595.43C892.815 561.882 894.091 526.988 877.294 492.047C871.482 479.95 862.032 471.351 849.439 466.342C823.853 456.16 797.866 467.24 792.55 490.794C796.685 491.999 798.787 488.243 801.788 486.896C813.671 481.557 825.436 482.715 837.131 487.227C840.745 488.621 843.084 490.227 839.21 494.716C834.083 500.646 834.012 507.757 838.572 514.254C843.321 521.035 850.29 521.625 857.519 519.428C860.969 518.389 862.859 516.333 865.197 521.814C880.081 556.709 863.213 597.698 827.043 610.432V610.408Z" fill="#41255B"/>
<path d="M697.929 366.503C697.858 375.149 692.66 381.221 686.825 386.395C672.508 399.129 657.908 411.579 643.048 423.675C637.661 428.046 631.164 432.393 623.888 427.266C616.422 421.998 615.382 414.273 618.572 406.358C628.967 380.56 643.378 358.281 672.319 350.367C685.833 346.681 698.094 354.785 697.952 366.479L697.929 366.503Z" fill="#41255B"/>
<path d="M779.909 337.821C801.81 338.743 821.348 345.192 835.499 363.053C839.87 368.557 844.406 374.771 839.633 382.142C834.861 389.513 826.923 388.19 820.403 386.324C802.14 381.079 784.067 375.031 766.088 368.817C758.954 366.36 751.464 362.439 752.386 353.485C753.425 343.468 761.67 339.688 770.554 337.892C773.554 337.278 776.791 337.798 779.933 337.798L779.909 337.821Z" fill="#41255B"/>
<path d="M787.682 708.547C794.722 708.784 802.447 705.145 806.487 697.562C813.339 684.78 825.104 672.046 811.614 656.359C809.724 654.162 810.622 651.138 812.961 648.965C815.772 646.342 818.867 646.248 821.229 649.036C826.262 654.965 832.286 657.186 839.988 656.17C843.366 655.722 846.107 657.493 846.201 661.557C846.319 665.928 843.957 668.432 839.799 668.148C832.026 667.605 830.656 671.716 828.979 678.473C824.443 696.711 817.166 713.981 796.872 719.935C775.019 726.337 754.11 715.54 742.014 692.341C738.163 684.922 736.25 676.37 725.193 676.11C721.342 676.016 719.452 672.188 720.728 668.125C721.791 664.699 724.579 662.573 727.957 663.825C735.258 666.565 740.809 664.959 745.534 658.887C747.755 656.052 750.756 655.532 753.803 657.895C756.709 660.163 757.82 663.849 755.363 666.14C744.755 676.016 751.866 684.355 757.3 692.624C763.938 702.688 773.223 708.571 787.635 708.524L787.682 708.547Z" fill="#41255B"/>
<path d="M646.332 515.223C663.082 481.415 692.543 471.445 720.468 488.479C730.556 494.645 737.832 503.41 742.297 514.042C755.315 544.92 756.591 576.436 744.235 607.739C738.659 621.89 729.351 633.207 713.711 638.263C702.702 641.83 693.228 639.467 683.447 633.561C702.702 633.325 717.68 625.907 726.728 608.944C738.281 587.28 736.864 564.67 731.383 541.47C717.538 548.652 707.828 547.684 702.985 539.179C697.882 530.225 701.615 521.672 714.703 513.356C691.432 493.653 669.012 498 646.332 515.223Z" fill="white"/>
<path d="M827.044 610.408C863.214 597.674 880.082 556.661 865.198 521.791C862.859 516.31 860.946 518.365 857.52 519.404C850.291 521.602 843.321 521.011 838.573 514.23C834.013 507.734 834.107 500.622 839.21 494.693C843.085 490.204 840.746 488.597 837.131 487.203C825.437 482.715 813.672 481.557 801.788 486.873C798.764 488.219 796.685 491.976 792.551 490.771C797.866 467.216 823.83 456.136 849.44 466.319C862.032 471.327 871.482 479.927 877.294 492.023C894.092 526.988 892.816 561.882 874.01 595.406C863.143 614.803 847.928 618.914 827.044 610.385V610.408Z" fill="white"/>
</svg>
